<svg xmlns="http://www.w3.org/2000/svg" version="1.1" xmlnsXlink="http://www.w3.org/1999/xlink" xmlnsSvgjs="http://svgjs.com/svgjs" width="1440" height="560" preserveAspectRatio="none" viewBox="0 0 1440 560">
    <g mask="url(&quot;#SvgjsMask1023&quot;)" fill="none">
        <path d="M -620.4838218198784,371 C -524.48,323.4 -332.48,116.2 -140.4838218198783,133 C 51.52,149.8 147.52,469 339.5161781801217,455 C 531.52,441 627.52,56 819.5161781801216,63 C 1011.52,70 1175.42,480 1299.5161781801216,490 C 1423.61,500 1411.9,188.4 1440,113" stroke="rgba(230, 0, 0, 0.1)" stroke-width="2"></path>
        <path d="M -532.0519803285496,369 C -436.05,315.8 -244.05,109.8 -52.051980328549604,103 C 139.95,96.2 235.95,300.6 427.9480196714504,335 C 619.95,369.4 715.95,279 907.9480196714504,275 C 1099.95,271 1281.54,333.4 1387.9480196714503,315 C 1494.36,296.6 1429.59,209.4 1440,183" stroke="rgba(33, 39, 56, 0.1)" stroke-width="2"></path>
    </g>
    <defs>
        <mask id="SvgjsMask1023">
            <rect width="1440" height="560" fill="#ffffff"></rect>
        </mask>
    </defs>
</svg>